<svg width="57" height="56" viewBox="0 0 57 56" fill="none" xmlns="http://www.w3.org/2000/svg">
<path d="M25.901 14.4578C25.901 13.3649 26.7401 12.4809 27.7699 12.4809C28.4566 12.4809 29.0727 12.8725 29.397 13.4929C28.2147 13.9314 27.2931 14.9569 26.943 16.2386C26.3208 15.9079 25.901 15.2196 25.901 14.4578H25.901ZM38.5887 44.7385C38.5887 45.8983 37.7053 46.7452 36.6115 46.7452H36.5988C36.0774 46.7452 35.5817 46.6303 35.2067 46.2392C34.8254 45.8411 34.6216 45.443 34.6155 44.883C34.6094 43.7231 35.4989 42.7446 36.5927 42.7446H36.5989C37.6926 42.7456 38.5827 43.578 38.5887 44.7384L38.5887 44.7385ZM37.6164 45.9216C37.3495 46.2118 36.9871 46.2922 36.6054 46.2922C36.4341 46.2922 36.2877 46.1974 36.2877 46.0155C36.2877 45.8267 36.4279 45.7323 36.6054 45.7323C36.8153 45.7323 37.0125 45.6044 37.1646 45.4421C37.3109 45.2803 37.3933 44.9901 37.3933 44.7673C37.3933 44.5785 37.5335 44.2678 37.711 44.2678C37.8824 44.2678 38.0287 44.538 38.0287 44.7264C38.03 45.1324 37.8837 45.6319 37.6164 45.9216ZM41.0813 32.6731C40.9985 32.6531 40.9288 32.5852 40.8841 32.5112C40.8394 32.4373 40.8206 32.3159 40.8394 32.228C40.8841 31.9922 40.9091 31.7109 40.9091 31.522C40.903 30.058 39.7776 28.7452 38.3981 28.7452H38.3854C37.5208 28.7452 36.7264 29.3233 36.2618 30.1055C36.2171 30.1795 36.1413 30.3301 36.0585 30.3511C35.9691 30.3711 35.8806 30.2832 35.8105 30.2292C35.1943 29.7772 34.4691 29.4126 33.7066 29.4126H33.6878C32.5055 29.4126 31.4248 30.1157 30.7131 31.1142C30.6115 31.2556 30.4143 31.4016 30.2745 31.3003C29.8547 30.9831 29.3779 30.7087 28.8315 30.7157C28.4244 30.7157 28.126 30.8384 27.7829 31.0403C27.7 31.0877 27.548 31.1282 27.4524 31.0882C27.363 31.0477 27.2999 30.9003 27.2745 30.7989C26.6773 28.4922 24.6874 26.7454 22.431 26.7454H22.4121C20.1807 26.7454 18.2483 28.4173 17.6133 30.6711C17.5625 30.8464 17.3846 31.0924 17.2132 31.0385C16.9209 30.9436 16.584 30.9017 16.2658 30.8952C15.2869 30.9017 14.3718 31.3059 13.6852 32.0481C12.9985 32.7834 12.6234 33.761 12.63 34.8069C12.6361 36.3318 13.4946 37.7079 14.8166 38.3214C14.963 38.3888 15.0388 38.5507 15.0007 38.713C14.956 38.9083 14.931 39.1111 14.931 39.3268C14.9371 40.2914 15.4393 41.1749 16.2404 41.6411C16.3548 41.7085 16.4183 41.8299 16.3995 41.9717C16.3933 42.0457 16.3933 41.9722 16.3933 42.047C16.406 44.3747 18.1795 46.082 20.36 46.082H20.3788C22.0826 46.082 23.5891 45.0826 24.1229 43.3693C24.161 43.2679 24.2373 43.3014 24.3389 43.2674C24.4345 43.2335 24.5423 43.2809 24.6246 43.3479C25.0756 43.726 25.6356 43.9687 26.2391 43.9413C27.3578 43.9348 28.2096 42.9833 28.2163 42.9768C28.2798 42.9028 28.3753 42.8456 28.4709 42.8586C28.5664 42.8651 28.6488 42.7773 28.7057 42.8586C29.2272 43.6209 30.8543 45.4156 32.1383 45.4156H32.1444C32.8114 45.4156 33.4472 45.4035 34.0072 45.0329C34.0011 44.9524 33.9822 44.9403 33.9822 44.8594C33.9761 43.328 35.1457 42.0821 36.5948 42.0821H36.601C37.491 42.0821 38.2789 42.5973 38.7556 43.3187C39.5247 42.6848 39.8998 41.8022 39.906 41.7951C39.9568 41.6738 40.0712 41.6138 40.1917 41.6138C41.3293 41.6073 42.4038 41.1385 43.2048 40.2818C44.012 39.4182 44.4506 38.2839 44.444 37.0756C44.437 34.9614 43.0199 33.1045 41.0812 32.6733L41.0813 32.6731ZM25.4432 33.8264C25.2652 33.8264 25.1255 33.6776 25.1255 33.4893C25.1255 33.186 24.8906 32.9293 24.5978 32.9293C24.3056 32.9293 24.0702 33.186 24.0702 33.4893C24.0702 33.6781 23.93 33.8264 23.7525 33.8264C23.5812 33.8264 23.4348 33.6776 23.4348 33.4893C23.4348 32.8079 23.9563 32.2545 24.5983 32.2545C25.2403 32.2545 25.7617 32.8079 25.7617 33.4893C25.7613 33.6776 25.6154 33.8264 25.4432 33.8264V33.8264ZM33.0014 37.2864C32.8235 37.2864 32.6837 37.1311 32.6837 36.9493C32.6837 36.2879 32.1754 35.7485 31.5522 35.7485C30.9291 35.7485 30.4269 36.2879 30.4269 36.9493C30.4269 37.1311 30.2806 37.2864 30.1092 37.2864C29.9313 37.2864 29.7915 37.1311 29.7915 36.9493C29.7915 35.9103 30.5799 35.0736 31.5522 35.0736C32.5246 35.0736 33.3196 35.9103 33.3196 36.9493C33.3191 37.132 33.1793 37.2864 33.0014 37.2864H33.0014ZM20.5447 19.7174C20.3313 18.2841 19.3887 17.1037 18.1073 16.6373C18.1073 16.5173 18.0946 16.3773 18.0758 16.2373C17.9312 15.2774 17.3471 14.4571 16.5179 14.0636L16.5118 14.0101C16.1787 11.7364 14.1621 10.1766 12.0135 10.5301C10.4745 10.7901 9.23657 11.9634 8.82856 13.5238C8.38859 13.3438 7.89867 13.2903 7.40261 13.3703C6.90612 13.4503 6.43505 13.6968 5.9889 14.1037C4.99022 13.2103 3.53884 13.1838 2.48983 14.0772C1.91796 14.5706 1.55994 15.2705 1.48458 16.044C1.40307 16.8239 1.61648 17.5908 2.07528 18.1977C2.11297 18.2442 2.14452 18.2842 2.18221 18.3242C2.08186 18.3977 1.98106 18.4707 1.88072 18.5577C1.15197 19.1846 0.693159 20.071 0.592868 21.0644C0.498654 22.0578 0.76859 23.0312 1.3593 23.811C2.05036 24.7179 3.06783 25.2178 4.17394 25.1913C4.26202 25.5448 4.42504 25.8713 4.64502 26.1582C5.50566 27.2981 7.08239 27.4785 8.15687 26.5582C8.2134 26.5117 8.26993 26.4582 8.32032 26.4047C9.24364 27.598 10.6258 28.2849 12.0644 28.2849C12.3094 28.2849 12.5543 28.2649 12.8059 28.2249C14.8225 27.8915 16.3931 26.2981 16.8014 24.218C17.0403 24.2245 17.2664 24.218 17.4798 24.1845C18.4474 24.0245 19.3014 23.4646 19.8795 22.6243C20.4566 21.7779 20.6954 20.7445 20.5447 19.7177L20.5447 19.7174ZM9.31868 19.9643C9.16793 20.0508 8.97951 19.9978 8.89142 19.8378C8.7157 19.5044 8.44532 19.2709 8.10001 19.1709C7.76084 19.0709 7.40895 19.1109 7.09476 19.2974C6.73674 19.5109 6.51063 19.8643 6.43525 20.3243C6.4037 20.5108 6.24068 20.6307 6.0711 20.5977C5.90151 20.5712 5.78232 20.3977 5.81343 20.2178C5.92035 19.5578 6.26566 19.0245 6.78713 18.7174C7.25207 18.444 7.76698 18.3775 8.26962 18.5309C8.77839 18.6844 9.18066 19.0179 9.43788 19.5108C9.52596 19.6708 9.46943 19.8708 9.31869 19.9643L9.31868 19.9643ZM13.7161 16.0974C13.5465 16.0974 13.4085 15.9439 13.4085 15.7574C13.4146 15.6239 13.3708 15.4974 13.2954 15.3975C13.2389 15.324 13.1385 15.224 12.9624 15.184C12.8116 15.1505 12.6736 15.1775 12.5412 15.264C12.4093 15.3575 12.3278 15.4905 12.2902 15.6909C12.2525 15.8709 12.0829 15.9909 11.9133 15.9509C11.8441 15.9309 11.7814 15.8909 11.7376 15.8309C11.681 15.7574 11.6561 15.6574 11.6749 15.5574C11.7503 15.1775 11.926 14.8905 12.2025 14.704C12.4724 14.5241 12.7866 14.4641 13.1008 14.5376C13.4461 14.6175 13.6661 14.8175 13.7858 14.9775C13.905 15.131 14.0434 15.3975 14.0369 15.7709C14.0369 15.9574 13.8922 16.1039 13.7161 16.0974L13.7161 16.0974ZM4.72449 12.3601C4.80556 12.3601 4.88706 12.3275 4.94929 12.2615C5.46638 11.7123 6.01808 11.3863 6.58816 11.2914C7.21392 11.1909 7.84145 11.3086 8.35592 11.6286C8.44444 11.6844 8.55706 11.69 8.6504 11.6439C8.74505 11.5974 8.81253 11.5039 8.83007 11.3946C9.12805 9.52784 10.522 8.07321 12.2972 7.77557C13.6675 7.55095 15.0461 8.06158 15.9918 9.13912C16.1118 9.27584 16.313 9.28329 16.4409 9.15633C16.5698 9.0289 16.5759 8.81544 16.4571 8.67964C15.3686 7.43741 13.7797 6.85011 12.1986 7.1087C10.2933 7.4282 8.77044 8.9043 8.29153 10.8441C7.73676 10.5994 7.11059 10.5246 6.49045 10.6246C5.78361 10.7413 5.11274 11.1315 4.49877 11.784C4.37431 11.916 4.37431 12.13 4.49877 12.2606C4.56187 12.3276 4.64338 12.3602 4.72445 12.3602L4.72449 12.3601ZM17.6995 49.3043C17.0325 49.1936 16.3896 48.9062 15.8406 48.4728C14.551 47.4645 13.9156 45.7284 14.2218 44.0496C14.242 43.9408 14.2091 43.8287 14.1368 43.7496C14.0627 43.6696 13.9576 43.6338 13.8555 43.6529C13.7161 43.6789 13.5588 43.6808 13.3888 43.6608C12.3686 43.5376 11.6329 42.5568 11.7486 41.4741C11.7862 41.1188 11.9107 40.7853 12.1066 40.51C12.2126 40.3612 12.185 40.1492 12.0452 40.038C11.9063 39.9255 11.7052 39.9548 11.6004 40.1031C11.3349 40.4752 11.1675 40.9225 11.1167 41.3978C11.0409 42.1024 11.2284 42.7958 11.643 43.3493C12.0584 43.9018 12.6526 44.2515 13.3174 44.3315C13.3923 44.3403 13.4655 44.3464 13.5374 44.3482C13.3573 46.1443 14.0864 47.9399 15.4629 49.0151C16.0934 49.5123 16.8332 49.8434 17.6017 49.9713C17.6188 49.974 17.6346 49.9754 17.6512 49.9754C17.8046 49.9754 17.9396 49.8569 17.9646 49.6899C17.9913 49.5067 17.873 49.3337 17.6994 49.3044L17.6995 49.3043ZM46.2677 33.0806C46.2441 32.9587 46.2116 32.8271 46.1652 32.695C45.833 31.7077 45.0219 30.9924 44.0495 30.8287C43.8773 30.7999 43.713 30.9245 43.6858 31.1096C43.6586 31.2938 43.777 31.4663 43.9505 31.4956C44.6937 31.6202 45.313 32.1672 45.5688 32.9267C45.6184 33.0666 45.6512 33.2192 45.6806 33.4359C45.7021 33.5926 45.8226 33.7131 45.9716 33.7252C47.1679 33.8186 48.2016 34.6506 48.6069 35.844C48.8813 36.6574 48.8418 37.5359 48.4965 38.3176C48.1503 39.0999 47.539 39.6904 46.7752 39.9802C46.6095 40.043 46.5241 40.2355 46.5828 40.4109C46.6293 40.5495 46.752 40.635 46.8817 40.635C46.9167 40.635 46.9531 40.6285 46.9886 40.615C47.9132 40.2635 48.6534 39.5496 49.0718 38.6036C49.489 37.6595 49.5368 36.5987 49.205 35.616C48.7436 34.2552 47.6065 33.2828 46.2677 33.0805L46.2677 33.0806ZM7.39666 31.2957C6.8375 31.2957 6.3099 31.471 5.84541 31.7952C5.76259 32.6718 5.27924 33.4141 4.59346 33.8191C4.56147 33.9944 4.53649 34.1632 4.53649 34.3316C4.53649 36.0118 5.82041 37.3741 7.39668 37.3741C8.97901 37.3741 10.2635 36.0115 10.2635 34.3316C10.2639 32.6587 8.97957 31.2957 7.39668 31.2957H7.39666ZM7.39666 36.8955C7.22533 36.8955 7.07896 36.7401 7.07896 36.5583C7.07896 36.3695 7.22533 36.2211 7.39666 36.2211C8.37563 36.2211 9.17015 35.371 9.17015 34.3326C9.17015 34.1507 9.31651 33.9954 9.48785 33.9954C9.66576 33.9954 9.80555 34.1507 9.80555 34.3326C9.80598 35.7482 8.72536 36.8955 7.39666 36.8955ZM4.98868 37.5391C4.82785 37.6149 4.75555 37.8144 4.82742 37.9846C4.95187 38.2813 5.01453 38.598 5.01453 38.9269C5.01453 40.2081 4.0325 41.2512 2.82519 41.2512C1.61788 41.2512 0.635062 40.2085 0.635062 38.9269C0.635062 37.6456 1.61753 36.6034 2.82519 36.6034C2.97462 36.6034 3.12317 36.6192 3.26691 36.6508C3.43518 36.6861 3.60695 36.5703 3.64246 36.388C3.67708 36.2053 3.56665 36.0272 3.39487 35.9895C3.20952 35.9495 3.01801 35.929 2.82564 35.929C1.26777 35.929 0 37.2745 0 38.9273C0 40.5806 1.26777 41.9261 2.82564 41.9261C4.38306 41.9261 5.65083 40.5806 5.65083 38.9273C5.65083 38.5041 5.56976 38.0944 5.40894 37.7112C5.33664 37.5396 5.14646 37.4638 4.9887 37.5391L4.98868 37.5391ZM40.1712 8.31688C41.4126 8.31688 42.4227 7.24491 42.4227 5.92743C42.4227 4.60996 41.4126 3.53798 40.1712 3.53798C39.9639 3.53798 39.7571 3.56821 39.5581 3.62727C39.389 3.67796 39.2913 3.86445 39.3382 4.0435C39.3859 4.22348 39.5603 4.32765 39.7304 4.27696C39.8728 4.23417 40.0213 4.21231 40.1712 4.21231C41.0621 4.21231 41.7868 4.98152 41.7868 5.92695C41.7868 6.87239 41.062 7.64159 40.1712 7.64159C39.2804 7.64159 38.5556 6.87239 38.5556 5.92695C38.5556 5.58281 38.6511 5.25168 38.8312 4.968C38.9298 4.81406 38.8917 4.60385 38.7462 4.49921C38.6011 4.39504 38.4039 4.43504 38.3045 4.58944C38.0525 4.98474 37.9193 5.44747 37.9193 5.92607C37.9197 7.24545 38.9293 8.31695 40.1712 8.31695L40.1712 8.31688ZM45.924 20.8939C45.9122 20.9567 45.9236 21.0186 45.9402 21.0758C46.0682 20.9376 46.42 20.6488 46.6023 20.5279C46.6343 19.2993 45.8705 18.1566 44.704 17.865C44.6282 17.845 44.5576 17.8176 44.4818 17.811C44.8696 16.0438 44.3547 14.1682 43.1085 12.92C41.6593 11.4491 39.466 11.0919 37.6799 12.0024C37.5467 11.7997 37.4003 11.6178 37.2412 11.4555C35.7794 9.97149 33.4463 10.032 32.0353 11.5974C31.5774 12.1099 31.2728 12.7372 31.1326 13.419C31.3298 13.4711 31.573 13.5623 31.7356 13.6399C31.846 13.0484 32.0975 12.5098 32.4994 12.0639C33.6628 10.7687 35.5888 10.7143 36.8026 11.9425C36.9866 12.1313 37.1457 12.3541 37.2982 12.6173C37.3876 12.7792 37.5778 12.8266 37.7303 12.7387C39.3126 11.7872 41.3468 12.0639 42.6693 13.4065C43.8327 14.5734 44.2649 16.3815 43.7688 18.0143C43.7368 18.1222 43.7561 18.2371 43.8196 18.3245C43.8893 18.4124 43.9909 18.4664 44.0931 18.4524C44.2267 18.4389 44.3788 18.4589 44.5571 18.5064C45.5488 18.7621 46.1649 19.8281 45.9239 20.894L45.924 20.8939ZM54.2188 18.57C52.8994 18.57 51.9559 19.5987 51.9113 20.9074C52.7136 21.2301 53.4191 22.3188 53.5703 23.2615C53.7802 23.3289 53.9963 23.4103 54.2184 23.4103H54.2246C55.7425 23.4103 56.5383 22.2127 56.5383 21.0087C56.5388 19.8837 55.7596 18.57 54.2188 18.57V18.57ZM27.7697 12.4813C26.7399 12.4813 25.9007 13.3654 25.9007 14.4582C25.9007 15.2205 26.3205 15.9083 26.9428 16.239C27.2921 14.9567 28.2145 13.9313 29.3968 13.4933C29.073 12.8729 28.456 12.4813 27.7697 12.4813H27.7697ZM30.6873 13.9254C28.8889 13.9254 27.42 15.4833 27.42 17.3928C27.42 19.3024 28.888 20.8538 30.6873 20.8538C32.4866 20.8538 33.9485 19.3024 33.9485 17.3928C33.9485 15.4838 32.4866 13.9254 30.6873 13.9254ZM31.7609 19.8213C31.7101 19.8553 31.6527 19.8688 31.6019 19.8688C31.4936 19.8688 31.3858 19.8083 31.3223 19.6935C31.2395 19.5316 31.2903 19.3293 31.4428 19.2349C32.1483 18.8103 32.5804 18.0206 32.5804 17.1639C32.5804 16.9546 32.5555 16.7523 32.5046 16.55C32.4599 16.3747 32.5616 16.1859 32.7334 16.1385C32.8986 16.091 33.0765 16.1989 33.1212 16.3812C33.1847 16.6379 33.2167 16.9007 33.2167 17.1639C33.2167 18.2624 32.6567 19.2813 31.7609 19.8213L31.7609 19.8213ZM27.4582 48.2019C25.4302 48.2019 23.7776 49.9491 23.7776 52.1009C23.7776 54.2523 25.4305 56 27.4582 56C29.4862 56 31.1322 54.2527 31.1322 52.1009C31.1322 49.9496 29.4862 48.2019 27.4582 48.2019V48.2019ZM27.4582 54.8262C27.2803 54.8262 27.1405 54.6774 27.1405 54.4891C27.1405 54.3072 27.2807 54.1519 27.4582 54.1519C28.52 54.1519 29.3908 53.2343 29.3908 52.1009C29.3908 51.9121 29.531 51.7638 29.7085 51.7638C29.8864 51.7638 30.0262 51.9126 30.0262 52.1009C30.0266 53.6059 28.8758 54.8262 27.4582 54.8262V54.8262ZM45.2491 42.3754C44.3609 42.3754 43.6379 43.1427 43.6379 44.0854C43.6379 45.028 44.3609 45.7954 45.2491 45.7954C46.1374 45.7954 46.8604 45.028 46.8604 44.0854C46.8604 43.1427 46.1374 42.3754 45.2491 42.3754V42.3754ZM38.6484 25.2683C38.6484 24.2 37.8302 23.3322 36.824 23.3322C35.8175 23.3322 34.9997 24.2005 34.9997 25.2683C34.9997 26.3365 35.8179 27.2053 36.824 27.2053C37.8306 27.2053 38.6484 26.3356 38.6484 25.2683V25.2683ZM23.994 9.41719C24.3915 9.41719 24.7907 9.25674 25.0935 8.93538C25.6991 8.29267 25.6991 7.24539 25.0935 6.60165C24.4879 5.95894 23.5002 5.95894 22.8945 6.60165C22.2889 7.24483 22.2889 8.2926 22.8945 8.93538C23.1973 9.25674 23.5961 9.41719 23.994 9.41719H23.994ZM5.43688 31.4615C5.43688 30.2622 4.52101 29.2902 3.3909 29.2902C2.26078 29.2902 1.34493 30.2622 1.34493 31.4615C1.34493 32.6609 2.26079 33.6329 3.3909 33.6329C4.52102 33.6333 5.43688 32.6609 5.43688 31.4615ZM49.5771 20.7019C47.5811 20.7019 45.9627 22.4194 45.9627 24.5377C45.9627 26.6561 47.5811 28.3736 49.5771 28.3736C51.5732 28.3736 53.1915 26.6561 53.1915 24.5377C53.1915 22.4189 51.5732 20.7019 49.5771 20.7019ZM41.1797 54.3542C39.7297 54.3542 38.5496 53.1022 38.5496 51.5629C38.5496 50.0235 39.7293 48.7717 41.1797 48.7717C42.6303 48.7717 43.8098 50.0236 43.8098 51.5629C43.8103 53.1023 42.6301 54.3542 41.1797 54.3542ZM41.1797 49.4463C40.0798 49.4463 39.185 50.3955 39.185 51.5633C39.185 52.7306 40.0794 53.6802 41.1797 53.6802C42.2796 53.6802 43.1744 52.731 43.1744 51.5633C43.1744 50.396 42.2796 49.4463 41.1797 49.4463ZM53.0329 39.2945C52.3098 39.2945 51.7214 38.6699 51.7214 37.9026C51.7214 37.1352 52.3099 36.5107 53.0329 36.5107C53.7559 36.5107 54.3444 37.1353 54.3444 37.9026C54.3448 38.6695 53.7559 39.2945 53.0329 39.2945ZM53.0329 37.1849C52.6604 37.1849 52.3567 37.5067 52.3567 37.9025C52.3567 38.2978 52.66 38.6201 53.0329 38.6201C53.4054 38.6201 53.709 38.2983 53.709 37.9025C53.709 37.5067 53.4049 37.1849 53.0329 37.1849ZM31.2595 6.45544C29.5829 6.45544 28.2183 5.00725 28.2183 3.22796C28.2183 1.44772 29.5829 0 31.2595 0C32.936 0 34.3006 1.44819 34.3006 3.22796C34.3006 5.00725 32.936 6.45544 31.2595 6.45544ZM31.2595 0.674212C29.9326 0.674212 28.8542 1.81966 28.8542 3.22784C28.8542 4.63602 29.9326 5.78051 31.2595 5.78051C32.5864 5.78051 33.6648 4.63599 33.6648 3.22784C33.6648 1.81968 32.5859 0.674212 31.2595 0.674212ZM9.89443 49.112C8.77261 49.112 7.85978 48.1428 7.85978 46.9527C7.85978 45.7622 8.77301 44.7934 9.89443 44.7934C11.0162 44.7934 11.9291 45.7626 11.9291 46.9527C11.9291 48.1423 11.0163 49.112 9.89443 49.112ZM9.89443 45.4669C9.12318 45.4669 8.49518 46.1329 8.49518 46.9519C8.49518 47.7704 9.12271 48.4369 9.89443 48.4369C10.6657 48.4369 11.2937 47.7709 11.2937 46.9519C11.2932 46.1334 10.6657 45.4669 9.89443 45.4669Z" fill="#88ABFA"/>
</svg>
