<svg width="53" height="56" viewBox="0 0 53 56" fill="none" xmlns="http://www.w3.org/2000/svg">
<path d="M10.5636 26.413H10.8368L10.6547 26.6397L10.8368 26.8664L11.0189 26.6397L10.8368 26.413H11.0189V25.7328C11.0189 19.1579 15.3901 13.7166 20.6719 13.7166H21.2183V13.4899L21.4004 13.7166L21.5825 13.4899L21.4004 13.2632L21.2183 13.4899V13.2632H20.6719C15.3901 13.2632 11.0189 7.82186 11.0189 1.24696V0.453441H10.8368L11.0189 0.226721L10.8368 0L10.6547 0.226721L10.8368 0.453441H10.6547V1.1336C10.6547 7.7085 6.28353 13.1498 1.00172 13.1498H0.364262V13.3765L0.182131 13.2632L0 13.4899L0.182131 13.7166L0.364262 13.4899V13.7166H0.910656C6.19246 13.7166 10.5636 19.1579 10.5636 25.7328V26.413Z" fill="#88ABFA"/>
<path d="M28.0483 5.21395V5.55403H28.2304C29.7785 5.55403 31.1445 7.14107 31.1445 9.0682V9.29492H31.4177L31.2356 9.52164L31.4177 9.74836L31.5998 9.52164L31.4177 9.29492H31.6909V9.0682C31.6909 7.14107 32.9658 5.55403 34.605 5.55403H34.7871V5.21395L34.9693 5.44067L35.1514 5.21395L34.9693 4.98722L34.7871 5.21395V4.87386H34.605C33.0569 4.87386 31.6909 3.28682 31.6909 1.35969V1.13297H31.4177L31.5998 0.906253L31.3266 0.792892L31.1445 1.01961L31.3266 1.24633H31.1445V1.47305C31.1445 3.40018 29.8696 4.98722 28.2304 4.98722H28.0483V5.21395L27.8662 4.98722L27.684 5.21395L27.8662 5.44067L28.0483 5.21395Z" fill="#88ABFA"/>
<path d="M45.2602 47.498V47.2713H44.896C41.6176 47.2713 38.8856 43.9838 38.8856 39.9028V39.4494H38.7035L38.8856 39.2227L38.7035 38.996L38.4303 39.2227L38.6124 39.4494H38.4303V39.9028C38.4303 43.9838 35.6983 47.2713 32.42 47.2713H32.0557V47.498L31.8736 47.2713L31.6915 47.498L31.8736 47.7247L32.0557 47.498V47.7247H32.42C35.6983 47.7247 38.4303 51.0122 38.4303 55.0931V55.5466H38.6124L38.4303 55.7733L38.6124 56L38.7946 55.7733L38.6124 55.5466H38.7946V55.2065C38.7946 51.1255 41.5265 47.8381 44.8049 47.8381H45.1692L45.2602 47.498L45.4424 47.7247L45.6245 47.498L45.3513 47.2713L45.2602 47.498Z" fill="#88ABFA"/>
<path d="M52.9998 19.1579L52.8176 19.3846V19.1579H52.3623C47.5358 19.1579 43.62 14.2834 43.62 8.2753V7.59513H43.4379L43.62 7.36841L43.4379 7.14169L43.2557 7.36841L43.4379 7.59513H43.2557V8.16194C43.2557 14.17 39.3399 19.0445 34.5134 19.0445H33.876V19.2712L33.6939 19.0445L33.5117 19.2712L33.6939 19.498L33.876 19.2712V19.498H34.3313C39.1578 19.498 43.0736 24.3725 43.0736 30.3806V30.9474H43.2557L43.0736 31.1741L43.2557 31.4008L43.4379 31.1741L43.2557 30.9474H43.4379V30.3806C43.4379 24.3725 47.3537 19.498 52.1802 19.498H52.6355V19.2712L52.8176 19.498L52.9998 19.2712V19.1579Z" fill="#88ABFA"/>
<path d="M40.433 33.7807V33.4406L40.6151 33.6674L40.7972 33.4406L40.6151 33.2139L40.433 33.4406V33.2139H39.7045C32.0549 33.2139 25.8625 25.5054 25.8625 15.9832V15.0763H25.6804L25.8625 14.8496L25.6804 14.6228L25.4982 14.8496L25.6804 15.0763H25.4982V15.9832C25.4982 25.5054 19.3058 33.2139 11.6562 33.2139H10.9277V33.4406L10.7456 33.2139L10.5635 33.4406L10.7456 33.6674L10.9277 33.4406V33.6674H11.6562C19.3058 33.6674 25.4982 41.3759 25.4982 50.8981V51.805H25.6804L25.4982 52.0317L25.6804 52.2585L25.8625 52.0317L25.5893 51.805H25.7714V50.8981C25.7714 41.3759 31.9639 33.6674 39.6134 33.6674H40.433V33.7807Z" fill="#88ABFA"/>
</svg>
