<svg width="52" height="56" viewBox="0 0 52 56" fill="none" xmlns="http://www.w3.org/2000/svg">
<path fill-rule="evenodd" clip-rule="evenodd" d="M44.8889 0H7.11149C4.64241 0 2.88285 0.952999 1.71155 2.35607C0.555761 3.74104 -0.019698 5.59599 0.00464753 7.44717V7.44764C0.00553224 7.46338 0.0059745 7.47911 0.0059745 7.49532V18.853C0.196175 18.4912 0.408932 18.1427 0.647348 17.8118C1.69389 16.3583 3.23182 15.2699 5.25374 14.8518V13.0226C5.25374 11.3135 5.75622 9.74787 6.59931 8.58369C7.44238 7.41997 8.65656 6.64867 10.0136 6.64867H41.9877C43.3439 6.64867 44.558 7.41812 45.4015 8.58137C46.245 9.74461 46.7471 11.3107 46.7471 13.0232V14.4634C48.2373 14.1216 49.3842 13.366 50.2321 12.3792C51.4034 11.0152 51.9996 9.17829 51.9996 7.33285C51.9996 5.48693 51.4038 3.65052 50.2321 2.28655C49.0608 0.922577 47.3186 0.00101726 44.8892 0.00101726L44.8889 0Z" fill="#576FA9"/>
<path fill-rule="evenodd" clip-rule="evenodd" d="M41.9864 8.01491H10.0122C9.09795 8.01491 8.24962 8.52502 7.59761 9.42465C6.94607 10.3242 6.521 11.6038 6.521 13.0222V14.684C6.69969 14.6731 6.88105 14.6664 7.06594 14.665H7.0655C7.08054 14.664 7.09513 14.6635 7.11017 14.6635H44.8876C45.0888 14.6635 45.2852 14.6564 45.4772 14.644V13.0217C45.4772 11.6001 45.0521 10.3204 44.4006 9.42182C43.7491 8.52321 42.9007 8.01453 41.986 8.01453L41.9864 8.01491Z" fill="#576FA9"/>
<path fill-rule="evenodd" clip-rule="evenodd" d="M52.0002 12.1327C51.756 12.5465 51.4773 12.9403 51.162 13.3069C49.7519 14.9488 47.622 16.0309 44.8881 16.0309H7.14802C4.49323 16.0309 2.77614 17.0831 1.64775 18.6501C0.519829 20.2167 0.00448524 22.3553 0.00448524 24.485V25.7707C0.395055 26.2327 0.836501 26.4081 1.42785 26.4939C2.03029 26.5817 2.76017 26.5378 3.53991 26.5616H18.5084C21.1876 26.5616 23.2775 27.6862 24.6519 29.3772C26.0262 31.0681 26.6976 33.2931 26.6976 35.509C26.6976 37.7243 26.0261 39.9498 24.6519 41.6407C23.2775 43.3317 21.1876 44.4563 18.5084 44.4563H3.53991C2.82732 44.4563 1.95326 44.4029 1.12347 44.1865C0.738654 44.0859 0.355151 43.951 0.00439453 43.756V48.5253C0.00439453 52.6395 3.12232 56 6.93958 56H45.0646C48.8819 56 51.9998 52.6395 51.9998 48.5253V12.1328L52.0002 12.1327Z" fill="#576FA9"/>
<path fill-rule="evenodd" clip-rule="evenodd" d="M9.84862e-05 27.4518C0.406147 27.6691 0.850244 27.7969 1.26822 27.8575C2.05202 27.9714 2.81897 27.8989 3.52714 27.9218H3.5466H18.5072C20.8647 27.9218 22.5549 28.8634 23.6992 30.2712C24.8435 31.679 25.4235 33.5874 25.4235 35.5038C25.4235 37.4198 24.8436 39.3287 23.6992 40.7365C22.555 42.1443 20.8649 43.0859 18.5072 43.0859H3.5466C2.89683 43.0859 2.09935 43.0272 1.42605 42.8508C0.752836 42.6749 0.247277 42.377 0.0389245 42.039H0.0393668C0.0269812 42.0242 0.0137127 42.0104 0 41.9965L9.84862e-05 27.4518ZM18.2898 31.8939C16.4971 31.8939 15.0201 33.4625 15.0201 35.3965C15.0201 37.3359 16.4971 38.9205 18.2898 38.9205C20.0825 38.9205 21.5395 37.334 21.5395 35.3965C21.5395 33.4643 20.0825 31.8939 18.2898 31.8939Z" fill="#576FA9"/>
<path fill-rule="evenodd" clip-rule="evenodd" d="M18.2877 33.2586C17.1788 33.2586 16.2915 34.2102 16.2915 35.4034C16.2915 36.6053 17.1788 37.555 18.2877 37.555C19.3966 37.555 20.2777 36.6067 20.2777 35.4034C20.2777 34.2083 19.3966 33.2586 18.2877 33.2586Z" fill="#576FA9"/>
</svg>
